<svg viewBox="0 0 512 512"
 xmlns="http://www.w3.org/2000/svg">
<path d="m377 0h-242c-74.438 0-135 60.562-135 135v242c0 74.438 60.562 135 135 135h242c74.438 0 135-60.562 135-135v-242c0-74.438-60.562-135-135-135zm105 377c0 57.898-47.102 105-105 105h-242c-57.898 0-105-47.102-105-105v-242c0-57.898 47.102-105 105-105h242c57.898 0 105 47.102 105 105z"/>
<path d="m332 90h-152c-49.625 0-90 40.375-90 90v152c0 49.625 40.375 90 90 90h152c49.625 0 90-40.375 90-90v-152c0-49.625-40.375-90-90-90zm60 242c0 33.086-26.914 60-60 60h-152c-33.086 0-60-26.914-60-60v-152c0-33.086 26.914-60 60-60h152c33.086 0 60 26.914 60 60z"/>
<path d="m256 181c-41.355 0-75 33.645-75 75s33.645 75 75 75 75-33.645 75-75-33.645-75-75-75zm0 120c-24.812 0-45-20.188-45-45s20.188-45 45-45 45 20.188 45 45-20.188 45-45 45z"/>
<path d="m357 170c0 8.2852-6.7148 15-15 15s-15-6.7148-15-15 6.7148-15 15-15 15 6.7148 15 15z"/>
</svg>
