<svg viewBox="0 0 512 512" xmlns="http://www.w3.org/2000/svg">
<path d="m60.945 278.22c0.64063-1.5977 7.0508-26.23 7.5-27.898-10.008-15.059-21.125-64.371-12.598-104.4 9.1992-58.73 71.438-87.602 130.2-87.602v-0.10937c73.57 0.046874 128.64 40.98 128.7 111.48 0.046875 55.18-33.195 128.12-89.957 128.12h-0.042968c-20.258 0-45.906-9.1875-52.633-18.211-7.7617-10.398-9.668-23.23-5.5664-36.941 10.051-32.082 22.867-70.512 24.363-96.137 1.3867-24.184-15.773-39.918-38.027-39.918-16.746 0-38.496 9.7266-49.336 37.059-8.9531 22.707-8.7617 46.48 0.58594 72.672 3.6445 10.238-16.156 76.984-22.5 98.719-15.762 53.992-37.34 122.3-32.727 160.35l4.4531 36.605 22.367-29.312c30.953-40.52 62.957-145.33 71.484-170.84 25.211 32.648 77.711 33.586 83.832 33.586 75.184 0 160.44-74.656 158.02-178.56-2.1211-91.121-68.809-166.88-188.63-166.88v0.11719c-113.98 0-180.5 60.836-196.79 137.7-14.914 71.273 18.254 125.52 57.301 140.4z"/>
</svg>
