<svg aria-hidden="true" style="position: absolute; width: 0; height: 0; overflow: hidden;" version="1.1" xmlns="http://www.w3.org/2000/svg" xmlns:xlink="http://www.w3.org/1999/xlink">
<defs>
<symbol id="magnifying-glass" viewBox="0 0 30 30">
<title>magnifying-glass</title>
<path d="M21.37 3.662c-4.882-4.882-12.827-4.882-17.709 0-4.881 4.883-4.881 12.827 0 17.71 4.347 4.346 11.118 4.812 15.996 1.418 0.103 0.486 0.338 0.949 0.715 1.327l7.109 7.109c1.036 1.034 2.71 1.034 3.741 0 1.035-1.035 1.035-2.709 0-3.741l-7.109-7.111c-0.376-0.375-0.84-0.611-1.326-0.713 3.396-4.88 2.93-11.649-1.418-15.998zM19.125 19.127c-3.645 3.645-9.576 3.645-13.22 0-3.642-3.645-3.642-9.575 0-13.22 3.643-3.643 9.575-3.643 13.22 0 3.645 3.645 3.645 9.575 0 13.22z"></path>
</symbol>
<symbol id="shopping-cart-1" viewBox="0 0 30 30">
<title>shopping-cart-1</title>
<path d="M25.253 23.955h-12.844l-0.794-3.175h16.785l3.599-14.397h-23.984l-1.265-5.060h-6.751v1.885h5.28l5.206 20.823c-1.515 0.325-2.655 1.675-2.655 3.286 0 1.854 1.508 3.361 3.361 3.361s3.361-1.508 3.361-3.361c0-0.529-0.123-1.031-0.342-1.477h8.024c-0.219 0.446-0.343 0.947-0.343 1.477 0 1.854 1.508 3.361 3.361 3.361s3.361-1.508 3.361-3.361c-0-1.854-1.508-3.361-3.361-3.361zM8.488 8.267h21.098l-2.657 10.627h-15.784l-2.657-10.627zM11.192 28.793c-0.814 0-1.477-0.662-1.477-1.477s0.662-1.477 1.477-1.477 1.477 0.662 1.477 1.477c0 0.814-0.662 1.477-1.477 1.477zM25.253 28.793c-0.814 0-1.477-0.662-1.477-1.477s0.662-1.477 1.477-1.477 1.477 0.662 1.477 1.477c-0 0.814-0.662 1.477-1.477 1.477z"></path>
</symbol>
</defs>
</svg>
