<svg aria-hidden="true" style="position: absolute; width: 0; height: 0; overflow: hidden;" version="1.1" xmlns="http://www.w3.org/2000/svg" xmlns:xlink="http://www.w3.org/1999/xlink">
<defs>
<symbol id="facebook" viewBox="0 0 32 32">
<title>facebook</title>
<path d="M23.999 0.007l-4.15-0.007c-4.662 0-7.675 3.091-7.675 7.875v3.631h-4.172c-0.361 0-0.652 0.292-0.652 0.653v5.261c0 0.361 0.292 0.652 0.652 0.652h4.172v13.275c0 0.361 0.292 0.653 0.652 0.653h5.444c0.361 0 0.652-0.292 0.652-0.652v-13.275h4.878c0.361 0 0.652-0.292 0.652-0.652l0.002-5.261c0-0.173-0.069-0.339-0.191-0.461s-0.289-0.191-0.462-0.191h-4.88v-3.078c0-1.479 0.353-2.23 2.28-2.23l2.795-0.001c0.36 0 0.652-0.292 0.652-0.652v-4.885c0-0.36-0.292-0.652-0.651-0.652z"></path>
</symbol>
<symbol id="instagram" viewBox="0 0 32 32">
<title>instagram</title>
<path d="M23.563 0h-15.125c-4.652 0-8.438 3.785-8.438 8.438v15.125c0 4.652 3.785 8.438 8.438 8.438h15.125c4.652 0 8.438-3.785 8.438-8.438v-15.125c0-4.652-3.785-8.438-8.438-8.438zM30.125 23.563c0 3.619-2.944 6.563-6.563 6.563h-15.125c-3.619 0-6.563-2.944-6.563-6.563v-15.125c0-3.619 2.944-6.563 6.563-6.563h15.125c3.619 0 6.563 2.944 6.563 6.563z"></path>
<path d="M20.75 5.625h-9.5c-3.102 0-5.625 2.523-5.625 5.625v9.5c0 3.102 2.523 5.625 5.625 5.625h9.5c3.102 0 5.625-2.523 5.625-5.625v-9.5c0-3.102-2.523-5.625-5.625-5.625zM24.5 20.75c0 2.068-1.682 3.75-3.75 3.75h-9.5c-2.068 0-3.75-1.682-3.75-3.75v-9.5c0-2.068 1.682-3.75 3.75-3.75h9.5c2.068 0 3.75 1.682 3.75 3.75z"></path>
<path d="M16 11.313c-2.585 0-4.688 2.103-4.688 4.688s2.103 4.688 4.688 4.688 4.688-2.103 4.688-4.688-2.103-4.688-4.688-4.688zM16 18.813c-1.551 0-2.813-1.262-2.813-2.813s1.262-2.813 2.813-2.813 2.813 1.262 2.813 2.813-1.262 2.813-2.813 2.813z"></path>
<path d="M22.313 10.625c0 0.518-0.42 0.938-0.938 0.938s-0.938-0.42-0.938-0.938 0.42-0.938 0.938-0.938 0.938 0.42 0.938 0.938z"></path>
</symbol>
<symbol id="pinterest" viewBox="0 0 32 32">
<title>pinterest</title>
<path d="M3.809 17.389c0.040-0.1 0.441-1.639 0.469-1.744-0.625-0.941-1.32-4.023-0.787-6.525 0.575-3.671 4.465-5.475 8.137-5.475v-0.007c4.598 0.003 8.040 2.561 8.044 6.968 0.003 3.449-2.075 8.008-5.622 8.008h-0.003c-1.266 0-2.869-0.574-3.29-1.138-0.485-0.65-0.604-1.452-0.348-2.309 0.628-2.005 1.429-4.407 1.523-6.009 0.087-1.511-0.986-2.495-2.377-2.495-1.047 0-2.406 0.608-3.083 2.316-0.56 1.419-0.548 2.905 0.037 4.542 0.228 0.64-1.010 4.812-1.406 6.17-0.985 3.375-2.334 7.644-2.045 10.022l0.278 2.288 1.398-1.832c1.935-2.532 3.935-9.083 4.468-10.678 1.576 2.041 4.857 2.099 5.239 2.099 4.699 0 10.027-4.666 9.876-11.16-0.133-5.695-4.301-10.43-11.789-10.43v0.007c-7.124 0-11.281 3.802-12.299 8.606-0.932 4.455 1.141 7.845 3.581 8.775z"></path>
</symbol>
<symbol id="twitter" viewBox="0 0 32 32">
<title>twitter</title>
<path d="M11.938 29.128c-1.384 0-2.808-0.112-4.241-0.337-2.524-0.396-5.078-1.716-5.801-2.111l-1.896-1.037 2.053-0.675c2.244-0.738 3.609-1.196 5.299-1.912-1.692-0.819-2.996-2.293-3.624-4.198l-0.478-1.45 0.392 0.060c-0.371-0.374-0.665-0.754-0.892-1.1-0.808-1.228-1.236-2.728-1.145-4.014l0.090-1.265 0.758 0.293c-0.32-0.604-0.551-1.248-0.686-1.924-0.331-1.647-0.054-3.398 0.78-4.928l0.66-1.211 0.883 1.060c2.791 3.353 6.327 5.342 10.523 5.924-0.171-1.181-0.043-2.322 0.382-3.344 0.495-1.19 1.375-2.199 2.545-2.918 1.299-0.799 2.875-1.186 4.437-1.090 1.657 0.102 3.161 0.723 4.356 1.797 0.584-0.152 1.013-0.313 1.595-0.532 0.35-0.132 0.746-0.281 1.242-0.452l1.828-0.63-1.192 3.405c0.079-0.007 0.16-0.012 0.244-0.016l1.952-0.088-1.154 1.577c-0.066 0.090-0.083 0.116-0.106 0.151-0.093 0.14-0.209 0.314-1.793 2.429-0.396 0.53-0.594 1.219-0.558 1.942 0.14 2.748-0.197 5.234-1.003 7.389-0.762 2.039-1.943 3.789-3.51 5.2-1.939 1.746-4.411 2.942-7.349 3.553-1.441 0.3-2.988 0.45-4.59 0.45z"></path>
</symbol>
</defs>
</svg>
